<svg height="281.009" viewBox="0 0 358.118 281.009" width="358.118" xmlns="http://www.w3.org/2000/svg"><path d="m328.424 110.1a1.531 1.531 0 0 1 -.853-1.851.736.736 0 0 0 .033-.17.768.768 0 0 0 -1.379-.509.734.734 0 0 0 -.085.151 1.531 1.531 0 0 1 -1.851.853.736.736 0 0 0 -.17-.033.768.768 0 0 0 -.509 1.38.737.737 0 0 0 .151.085 1.531 1.531 0 0 1 .853 1.851.736.736 0 0 0 -.033.17.768.768 0 0 0 1.379.509.735.735 0 0 0 .085-.151 1.531 1.531 0 0 1 1.851-.853.737.737 0 0 0 .17.033.768.768 0 0 0 .509-1.379.737.737 0 0 0 -.151-.086z" fill="#4d8af0" opacity=".5" transform="translate(-259.548 -90.112)"/><path d="m182.424 435.1a1.531 1.531 0 0 1 -.853-1.851.735.735 0 0 0 .033-.17.768.768 0 0 0 -1.38-.509.738.738 0 0 0 -.085.151 1.531 1.531 0 0 1 -1.851.853.735.735 0 0 0 -.17-.033.768.768 0 0 0 -.509 1.379.736.736 0 0 0 .151.085 1.531 1.531 0 0 1 .853 1.851.737.737 0 0 0 -.033.17.768.768 0 0 0 1.38.509.738.738 0 0 0 .085-.151 1.531 1.531 0 0 1 1.851-.853.734.734 0 0 0 .17.033.768.768 0 0 0 .509-1.379.74.74 0 0 0 -.151-.085z" fill="#4d8af0" opacity=".5" transform="translate(-174.388 -289.336)"/><circle cx="311.863" cy="99.318" fill="#f55f44" opacity=".5" r="2.5"/><circle cx="50.586" cy="266.008" fill="#f55f44" opacity=".5" r="2.5"/><circle cx="354.367" cy="189.499" fill="#f55f44" opacity=".5" r="2.5"/><path d="m867.424 139.1a1.531 1.531 0 0 1 -.853-1.851.739.739 0 0 0 .033-.17.768.768 0 0 0 -1.379-.509.734.734 0 0 0 -.085.151 1.531 1.531 0 0 1 -1.851.853.734.734 0 0 0 -.17-.033.768.768 0 0 0 -.509 1.379.737.737 0 0 0 .151.085 1.531 1.531 0 0 1 .853 1.851.739.739 0 0 0 -.033.17.768.768 0 0 0 1.379.509.731.731 0 0 0 .085-.151 1.531 1.531 0 0 1 1.851-.853.735.735 0 0 0 .17.033.768.768 0 0 0 .509-1.379.733.733 0 0 0 -.151-.085z" fill="#4d8af0" opacity=".5" transform="translate(-573.942 -107.028)"/><path d="m967.424 767.1a1.531 1.531 0 0 1 -.853-1.851.737.737 0 0 0 .033-.17.768.768 0 0 0 -1.38-.509.743.743 0 0 0 -.085.151 1.531 1.531 0 0 1 -1.851.853.741.741 0 0 0 -.17-.033.768.768 0 0 0 -.509 1.38.738.738 0 0 0 .151.085 1.531 1.531 0 0 1 .853 1.851.745.745 0 0 0 -.033.17.768.768 0 0 0 1.38.509.737.737 0 0 0 .085-.151 1.531 1.531 0 0 1 1.851-.853.734.734 0 0 0 .17.033.768.768 0 0 0 .509-1.379.729.729 0 0 0 -.151-.085z" fill="#4d8af0" opacity=".5" transform="translate(-632.271 -491.939)"/><path d="m175.424 245.1a1.531 1.531 0 0 1 -.853-1.851.737.737 0 0 0 .033-.17.768.768 0 0 0 -1.379-.509.737.737 0 0 0 -.085.151 1.531 1.531 0 0 1 -1.851.853.737.737 0 0 0 -.17-.033.768.768 0 0 0 -.509 1.38.738.738 0 0 0 .151.085 1.531 1.531 0 0 1 .853 1.851.735.735 0 0 0 -.033.17.768.768 0 0 0 1.38.509.736.736 0 0 0 .085-.151 1.531 1.531 0 0 1 1.851-.853.736.736 0 0 0 .17.033.768.768 0 0 0 .509-1.379.738.738 0 0 0 -.152-.086z" fill="#4d8af0" opacity=".5" transform="translate(-170.305 -173.501)"/><g fill="#47e6b1"><circle cx="33.084" cy="111.03" opacity=".5" r="2.5"/><circle cx="355.617" cy="129.769" opacity=".5" r="2.5"/><g opacity=".5" transform="translate(240.189)"><path d="m2.917 0h1.25v7.084h-1.25z"/><path d="m0 0h1.25v7.084h-1.25z" transform="matrix(0 1 -1 0 7.084 2.917)"/></g><g opacity=".5" transform="translate(244.773 258.924)"><path d="m2.917 0h1.25v7.084h-1.25z"/><path d="m0 0h1.25v7.084h-1.25z" transform="matrix(0 1 -1 0 7.084 2.917)"/></g><g opacity=".5" transform="translate(8.082 273.925)"><path d="m2.917 0h1.25v7.084h-1.25z"/><path d="m0 0h1.25v7.084h-1.25z" transform="matrix(0 1 -1 0 7.084 2.917)"/></g><g opacity=".5" transform="translate(292.695 154.522)"><path d="m2.917 0h1.25v7.084h-1.25z"/><path d="m0 0h1.25v7.084h-1.25z" transform="matrix(0 1 -1 0 7.084 2.917)"/></g><path d="m794.04 118.633 2.685 2.461 3.8-5.594 1.343 1.119-5.146 6.713-3.8-4.251z" opacity=".5" transform="translate(-462.505 -62.439)"/></g></svg>